<svg xmlns="http://www.w3.org/2000/svg" width="40" height="40" viewBox="0 0 40 40"><defs><linearGradient id="a" x1="100%" x2="0%" y1="50%" y2="50%"><stop offset="0%" stop-color="#22E6B8"/><stop offset="100%" stop-color="#00C1CE"/></linearGradient></defs><path fill="url(#a)" d="M40 20c11.077 0 20 9 20 20s-9 20-20 20-20-9-20-20 9-20 20-20zm0 38.462A18.418 18.418 0 0 0 58.462 40c0-10.154-8.308-18.462-18.462-18.462S21.538 29.846 21.538 40 29.846 58.462 40 58.462zm0-33.077c-.462 0-.77-.308-.77-.77 0-.461.308-.769.77-.769 5.385 0 10.462 2.692 13.538 7.077.231.385.154.846-.23 1.077-.154.077-.308.154-.462.154-.23 0-.461-.077-.615-.308-2.77-4-7.308-6.461-12.231-6.461zM55.58 40c.462 0 .77.308.693.77 0 9-7.308 16.307-16.308 16.307-3.77 0-7.538-1.385-10.461-3.846-.308-.231-.385-.77-.077-1.077.23-.308.769-.385 1.077-.077a14.99 14.99 0 0 0 9.538 3.461c8.154 0 14.77-6.615 14.77-14.769 0-.461.307-.769.768-.769zm-30.272.4c0 2.384.615 4.769 1.846 6.769.23.384.077.846-.308 1.077-.154.076-.23.076-.384.076a.808.808 0 0 1-.693-.384 16.213 16.213 0 0 1-1.923-7.616c0-5.23 2.539-10.153 6.77-13.23a17.696 17.696 0 0 1 5.153-2.462c.385-.077.846.154.923.539.077.384-.154.846-.538 1a14.665 14.665 0 0 0-4.692 2.23 14.797 14.797 0 0 0-6.154 12zm7.23 3.138h-1v-5.384A3.333 3.333 0 0 1 30 39v-1c.308-.077.615-.23.923-.385.385-.23.615-.461.846-.692h.77v6.615zm1.154-5.615c.462-.692 1-1 1.77-1 .769 0 1.307.308 1.769 1 .384.615.615 1.462.615 2.462 0 1-.23 1.846-.615 2.461-.385.692-1 1-1.77 1-.769 0-1.307-.384-1.769-1-.384-.615-.615-1.461-.615-2.461 0-1.077.23-1.847.615-2.462zm2.923.77c-.23-.616-.615-.924-1.153-.924-.539 0-.924.308-1.154.923-.154.385-.231 1-.231 1.693 0 .692.077 1.307.23 1.692.231.615.616.923 1.155.923.538 0 .923-.308 1.153-.923.154-.462.231-1 .231-1.692 0-.693-.077-1.308-.23-1.693zm5 5.153c-.769 0-1.307-.308-1.769-1-.384-.615-.615-1.461-.615-2.461 0-1.077.23-1.847.615-2.462.385-.692 1-1 1.77-1 .769 0 1.307.308 1.769 1 .384.615.615 1.462.615 2.462 0 1-.23 1.846-.615 2.461-.385.692-1 1-1.77 1zm-1.077-5.077c-.23.385-.307.923-.23 1.693 0 .692.077 1.307.23 1.692.231.615.616.923 1.154.923.539 0 .923-.308 1.154-.923.154-.462.23-1 .23-1.692 0-.693-.076-1.308-.23-1.693-.23-.615-.615-.923-1.154-.923-.538 0-.923.308-1.154.923zm7.154-.077c0 .539-.154.923-.384 1.231-.231.385-.616.539-1.154.539-.462 0-.846-.154-1.154-.539-.23-.308-.385-.692-.385-1.23 0-.462.154-.924.385-1.231.23-.385.615-.539 1.154-.539.461 0 .846.154 1.154.539.23.307.384.692.384 1.23zm-1 .77c.077-.154.077-.385.077-.847 0-.307-.077-.538-.154-.769-.077-.23-.23-.384-.461-.384a.578.578 0 0 0-.539.384c-.153.23-.153.462-.153.846 0 .308.076.539.153.77.154.23.308.384.539.384a.58.58 0 0 0 .538-.384zm3.923-2.539l-3.692 6.846h-.77l3.693-6.846h.77zm1.693 4.846c0 .539-.154.923-.385 1.231-.23.385-.615.538-1.154.538-.461 0-.846-.153-1.154-.538-.23-.308-.384-.692-.384-1.23 0-.462.154-.924.384-1.232.231-.384.616-.538 1.154-.538.462 0 .846.154 1.154.538.23.308.385.693.385 1.231zm-1 .77c.077-.154.077-.385.077-.847 0-.307-.077-.538-.154-.769-.077-.23-.231-.385-.462-.385a.578.578 0 0 0-.538.385c-.154.23-.154.462-.154.846 0 .308.077.539.154.77.154.23.307.384.538.384a.579.579 0 0 0 .539-.385z" transform="translate(-20 -20)"/></svg>