<?xml version="1.0" encoding="utf-8"?>
<!-- Generator: Adobe Illustrator 18.0.0, SVG Export Plug-In . SVG Version: 6.00 Build 0)  -->
<!DOCTYPE svg PUBLIC "-//W3C//DTD SVG 1.1//EN" "http://www.w3.org/Graphics/SVG/1.1/DTD/svg11.dtd">
<svg version="1.1" id="Shape_1_1_" xmlns="http://www.w3.org/2000/svg" xmlns:xlink="http://www.w3.org/1999/xlink" x="0px" y="0px"
	 viewBox="0 0 42 43" enable-background="new 0 0 42 43" xml:space="preserve">
<g id="Shape_1">
	<g>
		<path fill="#367EA6" d="M28.9,17.2h-6.3V7.8c0-0.4-0.3-0.7-0.6-0.8c-0.4-0.1-0.8,0.1-0.9,0.5l-7.9,18.3c-0.1,0.2-0.1,0.5,0.1,0.8
			c0.1,0.2,0.4,0.4,0.7,0.4h6.3v9.4c0,0.4,0.3,0.7,0.6,0.8c0.1,0,0.1,0,0.2,0c0.3,0,0.6-0.2,0.7-0.5l7.9-18.3
			c0.1-0.2,0.1-0.5-0.1-0.8C29.4,17.4,29.2,17.2,28.9,17.2z M21.8,32.5v-6.3c0-0.4-0.4-0.8-0.8-0.8h-5.9L21,11.7V18
			c0,0.4,0.4,0.8,0.8,0.8h5.9L21.8,32.5z M21,1C9.4,1,0,10.4,0,22c0,11.6,9.4,21,21,21s21-9.4,21-21C42,10.4,32.6,1,21,1z M21,41.4
			C10.3,41.4,1.6,32.7,1.6,22S10.3,2.6,21,2.6c10.7,0,19.4,8.7,19.4,19.4S31.7,41.4,21,41.4z"/>
	</g>
</g>
</svg>
