<svg xmlns="http://www.w3.org/2000/svg" width="40" height="40" viewBox="0 0 40 40"><defs><linearGradient id="a" x1="100%" x2="0%" y1="50%" y2="50%"><stop offset="0%" stop-color="#22E6B8"/><stop offset="100%" stop-color="#00C1CE"/></linearGradient></defs><path fill="url(#a)" d="M58.345 23.039a28.695 28.695 0 0 1-1 5.334C55.829 33.72 52.92 38.79 48.3 43.09l-.252.234v.345c0 .092.005.19.014.325l.028.356c.149 1.946-.125 3.5-1.364 5.309-1.716 2.504-5.046 5.166-9.082 7.128l-.114-3.757-.172-5.693-.737-.03a6.282 6.282 0 0 1-.915-.13 7.209 7.209 0 0 1-2.019-.72c-1.729-.95-2.63-2.521-2.368-5.021l.076-.734-5.394-.955-3.59-.636c2.453-4.37 5.599-7.386 8.4-8.443 1.491-.563 3.059-.63 4.469-.403.265.042.45.083.537.108l.57.158.313-.504c.032-.05.107-.16.228-.322.21-.28.47-.596.784-.938.905-.987 2.047-1.978 3.445-2.906 4.3-2.853 9.989-4.483 17.255-4.257 0 .4-.022.89-.068 1.435zM35.532 28.7c-1.66-.267-3.494-.189-5.28.485-3.399 1.283-7.076 4.944-9.76 10.151l-.492.955 5.726 1.014 3.97.703c-.077 2.762 1.143 4.69 3.23 5.836.776.426 1.615.71 2.463.884.153.032.297.057.43.079l.13 4.27.185 6.13 1.076-.474c4.769-2.105 8.778-5.196 10.823-8.18 1.477-2.155 1.81-4.051 1.637-6.325l-.018-.236c4.686-4.453 7.656-9.682 9.216-15.188 1.043-3.68 1.39-7.76.937-8.415l-.223-.322-.391-.018c-7.941-.373-14.19 1.36-18.908 4.491-1.509 1.001-2.748 2.077-3.738 3.156-.365.398-.651.746-.865 1.029a10.44 10.44 0 0 0-.148-.025zM22.975 53.257l3.792-6.816c.1.224.198.435.294.632.265.548.51.983.75 1.309.333.453.906 1.012 1.704 1.703a37.395 37.395 0 0 0 .605.513l-7.145 2.66zM47.963 34.79c-1.94 0-3.516-1.598-3.516-3.573 0-1.976 1.577-3.574 3.516-3.574 1.94 0 3.516 1.598 3.516 3.574 0 1.975-1.577 3.573-3.516 3.573z" transform="translate(-20 -20)"/></svg>