<?xml version="1.0" encoding="utf-8"?>
<!-- Generator: Adobe Illustrator 18.0.0, SVG Export Plug-In . SVG Version: 6.00 Build 0)  -->
<!DOCTYPE svg PUBLIC "-//W3C//DTD SVG 1.1//EN" "http://www.w3.org/Graphics/SVG/1.1/DTD/svg11.dtd">
<svg version="1.1" id="Layer_1" xmlns="http://www.w3.org/2000/svg" xmlns:xlink="http://www.w3.org/1999/xlink" x="0px" y="0px"
	 viewBox="0 0 152.2 151" enable-background="new 0 0 152.2 151" xml:space="preserve">
<g>
	<defs>
		<circle id="SVGID_1_" cx="76" cy="76" r="75"/>
	</defs>
	<clipPath id="SVGID_2_">
		<use xlink:href="#SVGID_1_"  overflow="visible"/>
	</clipPath>
	<g clip-path="url(#SVGID_2_)">
		<path fill="#1A7AB1" d="M100.2,24.5c-15.9,0-28.9,13-28.9,28.9c0,15.9,13,28.9,28.9,28.9c15.9,0,28.9-13,28.9-28.9
			C129.2,37.5,116.2,24.5,100.2,24.5z M100.2,80.5c-14.9,0-27.1-12.2-27.1-27.1c0-14.9,12.2-27.1,27.1-27.1s27.1,12.2,27.1,27.1
			C127.3,68.3,115.2,80.5,100.2,80.5z"/>
		<path fill="#1A7AB1" d="M107.9,59.5c0-3.2-2.4-6-5.8-6.8l-1-0.2V41.7l1.8,0.8c2,0.9,3.2,2.7,3.2,4.7c0,0.5,0.4,0.9,0.9,0.9
			s0.9-0.4,0.9-0.9c0-3.2-2.4-6-5.8-6.8l-1-0.2v-1.6c0-0.5-0.4-0.9-0.9-0.9s-0.9,0.4-0.9,0.9v1.6l-1,0.2c-3.4,0.8-5.8,3.6-5.8,6.8
			c0,3.2,2.4,6,5.8,6.8l1,0.2v10.7l-1.8-0.8c-2-0.9-3.2-2.7-3.2-4.7c0-0.5-0.4-0.9-0.9-0.9s-0.9,0.4-0.9,0.9c0,3.2,2.4,6,5.8,6.8
			l1,0.2v1.9c0,0.5,0.4,0.9,0.9,0.9s0.9-0.4,0.9-0.9v-1.9l1-0.2C105.5,65.5,107.9,62.7,107.9,59.5z M99.3,52.6l-1.8-0.8
			c-2-0.9-3.2-2.7-3.2-4.7s1.2-3.7,3.2-4.7l1.8-0.8V52.6z M102.9,64.1l-1.8,0.8V54l1.8,0.8c2,0.9,3.2,2.7,3.2,4.7
			C106.1,61.4,104.9,63.2,102.9,64.1z"/>
		<path fill="#1A7AB1" d="M57.4,109.8c0-1.8-0.7-3.5-2-4.7l-1-0.9l1-0.9c1.3-1.3,2-2.9,2-4.7c0-2.7-1.7-5.2-4.2-6.1l-0.8-0.3v-3
			c0-0.5-0.4-0.9-0.9-0.9s-0.9,0.4-0.9,0.9V92h-4v-2.8c0-0.5-0.4-0.9-0.9-0.9c-0.5,0-0.9,0.4-0.9,0.9V92h-4.1
			c-0.5,0-0.9,0.4-0.9,0.9s0.4,0.9,0.9,0.9h1.7v20.8h-1.7c-0.5,0-0.9,0.4-0.9,0.9s0.4,0.9,0.9,0.9h4.1v2.7c0,0.5,0.4,0.9,0.9,0.9
			c0.5,0,0.9-0.4,0.9-0.9v-2.7h4v2.7c0,0.5,0.4,0.9,0.9,0.9s0.9-0.4,0.9-0.9v-2.9l0.8-0.3C55.7,115,57.4,112.5,57.4,109.8z
			 M44.1,93.8h6.7c2.6,0,4.7,2.1,4.7,4.7c0,2.6-2.1,4.7-4.7,4.7h-6.7V93.8z M50.8,114.6h-6.7v-9.5h6.7c2.6,0,4.7,2.1,4.7,4.7
			S53.4,114.6,50.8,114.6z"/>
		<path fill="#1A7AB1" d="M49.5,75.3c-15.9,0-28.9,13-28.9,28.9c0,15.9,13,28.9,28.9,28.9s28.9-13,28.9-28.9
			C78.4,88.2,65.4,75.3,49.5,75.3z M49.5,131.3c-14.9,0-27.1-12.2-27.1-27.1c0-14.9,12.2-27.1,27.1-27.1s27.1,12.2,27.1,27.1
			C76.6,119.1,64.4,131.3,49.5,131.3z"/>
		<path fill="#1A7AB1" d="M59.6,38c0.5,0,0.9-0.4,0.9-0.9c0-0.5-0.4-0.9-0.9-0.9H33.2c-0.5,0-0.9,0.4-0.9,0.9V62l-2-1.3
			c-0.4-0.2-0.8-0.2-1.2,0.1c-0.2,0.2-0.3,0.4-0.3,0.6c0,0.2,0.1,0.5,0.3,0.6l3.5,3.5c0.3,0.3,0.9,0.3,1.3,0l3.5-3.5
			c0.2-0.2,0.3-0.4,0.3-0.6c0-0.2-0.1-0.5-0.3-0.6c-0.3-0.3-0.8-0.4-1.2-0.1l-2.1,1.6V38H59.6z"/>
	</g>
</g>
<circle fill="none" stroke="#1A7AB1" stroke-width="0.5" stroke-miterlimit="10" cx="76" cy="76" r="75"/>
</svg>
