<svg xmlns="http://www.w3.org/2000/svg" width="30" height="38" viewBox="0 0 30 38"><defs><linearGradient id="a" x1="100%" x2="0%" y1="50%" y2="50%"><stop offset="0%" stop-color="#22E6B8"/><stop offset="100%" stop-color="#00C1CE"/></linearGradient></defs><path fill="url(#a)" d="M51.561 36.366h-.732v-4.39A10.96 10.96 0 0 0 39.854 21a10.96 10.96 0 0 0-10.976 10.976v4.39h-.732a2.935 2.935 0 0 0-2.926 2.927V55.39a2.935 2.935 0 0 0 2.926 2.927h23.415a2.935 2.935 0 0 0 2.927-2.927V39.293a2.935 2.935 0 0 0-2.927-2.927zm1.463 19.024c0 .805-.658 1.464-1.463 1.464H28.146a1.468 1.468 0 0 1-1.463-1.464V39.293c0-.805.658-1.464 1.463-1.464h23.415c.805 0 1.463.659 1.463 1.464V55.39zM30.341 31.976a9.493 9.493 0 0 1 9.513-9.513 9.493 9.493 0 0 1 9.512 9.513v4.39H30.34v-4.39zm9.513 10.17a3.279 3.279 0 0 1 3.292 3.293 3.294 3.294 0 0 1-1.975 3v4.024c0 .732-.586 1.317-1.317 1.317a1.312 1.312 0 0 1-1.317-1.317V48.44a3.294 3.294 0 0 1-1.976-3 3.279 3.279 0 0 1 3.293-3.293z" transform="translate(-25 -21)"/></svg>