<?xml version="1.0" encoding="utf-8"?>
<!-- Generator: Adobe Illustrator 18.0.0, SVG Export Plug-In . SVG Version: 6.00 Build 0)  -->
<!DOCTYPE svg PUBLIC "-//W3C//DTD SVG 1.1//EN" "http://www.w3.org/Graphics/SVG/1.1/DTD/svg11.dtd">
<svg version="1.1" id="Layer_1" xmlns="http://www.w3.org/2000/svg" xmlns:xlink="http://www.w3.org/1999/xlink" x="0px" y="0px"
	 viewBox="0 0 49.4 46.3" enable-background="new 0 0 49.4 46.3" xml:space="preserve">
<g>
	<defs>
		<rect id="SVGID_1_" y="0" width="49.4" height="46.3"/>
	</defs>
	<clipPath id="SVGID_2_">
		<use xlink:href="#SVGID_1_"  overflow="visible"/>
	</clipPath>
	<path clip-path="url(#SVGID_2_)" fill="#377EA6" d="M43.7,26.9l-5.6,5.6l-1.4-1.4c-0.3-0.3-0.9-0.3-1.2,0c-0.3,0.3-0.3,0.9,0,1.2
		l2,2c0.2,0.2,0.4,0.3,0.6,0.3c0.2,0,0.4-0.1,0.6-0.3l6.2-6.2c0.3-0.3,0.3-0.9,0-1.2C44.6,26.6,44.1,26.6,43.7,26.9"/>
	<path clip-path="url(#SVGID_2_)" fill="#377EA6" d="M22.5,15c0.2,0.2,0.4,0.2,0.6,0.2c0.2,0,0.4-0.1,0.6-0.2l6.8-6.8
		c0.3-0.3,0.3-0.9,0-1.2c-0.3-0.3-0.9-0.3-1.2,0l-6.2,6.2l-1.6-1.6c-0.3-0.3-0.9-0.3-1.2,0c-0.3,0.3-0.3,0.9,0,1.2L22.5,15z"/>
	<path clip-path="url(#SVGID_2_)" fill="#377EA6" d="M7.8,39.6c0.2,0.2,0.4,0.3,0.6,0.3c0.2,0,0.4-0.1,0.6-0.3l4.2-4.2
		c0.3-0.3,0.3-0.9,0-1.2c-0.3-0.3-0.9-0.3-1.2,0l-3.6,3.6l-0.7-0.7c-0.3-0.3-0.9-0.3-1.2,0c-0.3,0.3-0.3,0.9,0,1.2L7.8,39.6z"/>
	<path clip-path="url(#SVGID_2_)" fill="#377EA6" d="M1.2,43c0.2,0.2,0.4,0.4,0.7,0.4l17.2,0c0.3,0,0.5-0.1,0.6-0.3l1.4-1.7
		c0.1-0.2,0.2-0.3,0.2-0.5v-0.6h8.3v3.9c0,0.3,0.1,0.5,0.3,0.6l1.5,1.2c0.2,0.1,0.3,0.2,0.5,0.2h15.2c0.2,0,0.3,0,0.5-0.1l1.5-0.9
		c0.2-0.2,0.4-0.4,0.4-0.7V21.1c0-0.3-0.1-0.5-0.3-0.7l-1.5-1.2c-0.2-0.1-0.3-0.2-0.5-0.2h-0.5V3.3c0-0.2-0.1-0.5-0.3-0.6l-2.7-2.5
		C43.5,0.1,43.3,0,43,0H4.5C4.3,0,4.2,0.1,4,0.1L0.5,2.6C0.3,2.7,0.1,3,0.1,3.3V25c0,0.2,0.1,0.5,0.3,0.6l2.7,2.5
		c0.2,0.1,0.4,0.2,0.6,0.2h17l-1,3c-0.1,0-0.2-0.1-0.3-0.1h0l-17.2,0c-0.3,0-0.5,0.1-0.6,0.3l-1.4,1.7C0.1,33.4,0,33.6,0,33.8v7.1
		c0,0.2,0,0.3,0.1,0.4L1.2,43z M29.6,30.3v4.1L27.8,34l-1.4-5.7h3.2V30.3z M46.8,44.6H32.2l-0.9-0.8v-1.6h16.4V44L46.8,44.6z
		 M47.7,21.5v19H31.3V21.3l0.9-0.6h14.6L47.7,21.5z M4.8,1.7h38l2.2,2V19h-13c-0.2,0-0.3,0-0.4,0.1L30,20.1
		c-0.2,0.2-0.4,0.4-0.4,0.7v0.4H1.8V3.7L4.8,1.7z M1.8,24.6V23h27.8v3.7H4L1.8,24.6z M24.7,28.3l1.6,6.6c0.1,0.3,0.3,0.6,0.7,0.6
		l2.7,0.5v2.4h-8.3v-4.8c0-0.2,0-0.3-0.1-0.5L20.9,33l1.5-4.7H24.7z M19.6,34.1v6.5l-0.9,1.1h-0.9c0,0,0,0,0-0.1V33l1.2,0L19.6,34.1
		z M1.7,34.1L2.6,33l13.4,0v8.7c0,0,0,0,0,0.1l-13.7,0l-0.7-1.1V34.1z"/>
</g>
</svg>
